<?xml version="1.0" encoding="UTF-8" standalone="no"?>
<!DOCTYPE svg PUBLIC "-//W3C//DTD SVG 1.1//EN"
 "http://www.w3.org/Graphics/SVG/1.1/DTD/svg11.dtd">
<!-- Generated by graphviz version 2.43.0 (0)
 -->
<!-- Title: nfa Pages: 1 -->
<svg width="218pt" height="93pt"
 viewBox="0.00 0.00 217.79 93.20" xmlns="http://www.w3.org/2000/svg" xmlns:xlink="http://www.w3.org/1999/xlink">
<g id="graph0" class="graph" transform="scale(1 1) rotate(0) translate(4 89.2)">
<title>nfa</title>
<polygon fill="white" stroke="transparent" points="-4,4 -4,-89.2 213.79,-89.2 213.79,4 -4,4"/>
<!-- regex -->
<g id="node1" class="node">
<title>regex</title>
<path fill="none" stroke="black" d="M22.67,-34C22.67,-34 11.33,-34 11.33,-34 5.67,-34 0,-28.33 0,-22.67 0,-22.67 0,-11.33 0,-11.33 0,-5.67 5.67,0 11.33,0 11.33,0 22.67,0 22.67,0 28.33,0 34,-5.67 34,-11.33 34,-11.33 34,-22.67 34,-22.67 34,-28.33 28.33,-34 22.67,-34"/>
<text text-anchor="start" x="12" y="-10.8" font-family="Times,serif" font-size="24.00">ε</text>
</g>
<!-- * -->
<!-- 0 -->
<g id="node3" class="node">
<title>0</title>
<ellipse fill="none" stroke="black" cx="89.2" cy="-63" rx="18.4" ry="18.4"/>
<text text-anchor="start" x="83.2" y="-60.3" font-family="Times,serif" font-size="14.00">q</text>
<text text-anchor="start" x="90.2" y="-60.3" font-family="Times,serif" baseline-shift="sub" font-size="11.00">0</text>
</g>
<!-- *&#45;&gt;0 -->
<g id="edge2" class="edge">
<title>*&#45;&gt;0</title>
<path fill="none" stroke="black" d="M22.18,-63C29.73,-63 46.23,-63 60.84,-63"/>
<polygon fill="black" stroke="black" points="60.99,-66.5 70.99,-63 60.99,-59.5 60.99,-66.5"/>
</g>
<!-- 1 -->
<g id="node4" class="node">
<title>1</title>
<ellipse fill="none" stroke="black" cx="187.6" cy="-63" rx="18.36" ry="18.36"/>
<ellipse fill="none" stroke="black" cx="187.6" cy="-63" rx="22.4" ry="22.4"/>
<text text-anchor="start" x="181.6" y="-60.3" font-family="Times,serif" font-size="14.00">q</text>
<text text-anchor="start" x="188.6" y="-60.3" font-family="Times,serif" baseline-shift="sub" font-size="11.00">1</text>
</g>
<!-- 0&#45;&gt;1 -->
<g id="edge1" class="edge">
<title>0&#45;&gt;1</title>
<path fill="none" stroke="black" d="M107.43,-63C120.54,-63 138.96,-63 154.73,-63"/>
<polygon fill="black" stroke="black" points="155.12,-66.5 165.12,-63 155.12,-59.5 155.12,-66.5"/>
<text text-anchor="middle" x="136.4" y="-66.8" font-family="Times,serif" font-size="14.00"> &#160;ε &#160;</text>
</g>
</g>
</svg>
